<mxfile host="app.diagrams.net" agent="Mozilla/5.0 (Windows NT 10.0; Win64; x64; rv:143.0) Gecko/20100101 Firefox/143.0" version="28.2.5">
  <diagram name="Página-1" id="tTkTeLbbcIn677YA5Gx4">
    <mxGraphModel dx="991" dy="563" grid="1" gridSize="10" guides="1" tooltips="1" connect="1" arrows="1" fold="1" page="1" pageScale="1" pageWidth="827" pageHeight="1169" math="0" shadow="0">
      <root>
        <mxCell id="0" />
        <mxCell id="1" parent="0" />
        <mxCell id="aK1pAJvMrhKp8s3aEPsD-26" style="edgeStyle=orthogonalEdgeStyle;rounded=0;orthogonalLoop=1;jettySize=auto;html=1;exitX=0.5;exitY=0;exitDx=0;exitDy=0;entryX=0;entryY=0.5;entryDx=0;entryDy=0;" edge="1" parent="1" source="aK1pAJvMrhKp8s3aEPsD-1" target="aK1pAJvMrhKp8s3aEPsD-13">
          <mxGeometry relative="1" as="geometry" />
        </mxCell>
        <mxCell id="aK1pAJvMrhKp8s3aEPsD-1" value="" style="rounded=0;whiteSpace=wrap;html=1;rotation=90;" vertex="1" parent="1">
          <mxGeometry x="-120" y="240" width="480" height="155" as="geometry" />
        </mxCell>
        <mxCell id="aK1pAJvMrhKp8s3aEPsD-2" value="Pedro" style="text;html=1;align=center;verticalAlign=middle;whiteSpace=wrap;rounded=0;" vertex="1" parent="1">
          <mxGeometry x="90" y="40" width="60" height="30" as="geometry" />
        </mxCell>
        <mxCell id="aK1pAJvMrhKp8s3aEPsD-3" value="Of NQN" style="shape=umlActor;verticalLabelPosition=bottom;verticalAlign=top;html=1;outlineConnect=0;" vertex="1" parent="1">
          <mxGeometry x="140" y="110" width="30" height="60" as="geometry" />
        </mxCell>
        <mxCell id="aK1pAJvMrhKp8s3aEPsD-5" value="Of BRASIL" style="shape=umlActor;verticalLabelPosition=bottom;verticalAlign=top;html=1;outlineConnect=0;" vertex="1" parent="1">
          <mxGeometry x="70" y="350" width="30" height="60" as="geometry" />
        </mxCell>
        <mxCell id="aK1pAJvMrhKp8s3aEPsD-6" value="Of INDIA" style="shape=umlActor;verticalLabelPosition=bottom;verticalAlign=top;html=1;outlineConnect=0;" vertex="1" parent="1">
          <mxGeometry x="70" y="230" width="30" height="60" as="geometry" />
        </mxCell>
        <mxCell id="aK1pAJvMrhKp8s3aEPsD-7" value="Of MEXICO" style="shape=umlActor;verticalLabelPosition=bottom;verticalAlign=top;html=1;outlineConnect=0;" vertex="1" parent="1">
          <mxGeometry x="140" y="230" width="30" height="60" as="geometry" />
        </mxCell>
        <mxCell id="aK1pAJvMrhKp8s3aEPsD-8" value="Of ARG" style="shape=umlActor;verticalLabelPosition=bottom;verticalAlign=top;html=1;outlineConnect=0;" vertex="1" parent="1">
          <mxGeometry x="70" y="110" width="30" height="60" as="geometry" />
        </mxCell>
        <mxCell id="aK1pAJvMrhKp8s3aEPsD-9" value="Of ITALIA" style="shape=umlActor;verticalLabelPosition=bottom;verticalAlign=top;html=1;outlineConnect=0;" vertex="1" parent="1">
          <mxGeometry x="140" y="460" width="30" height="60" as="geometry" />
        </mxCell>
        <mxCell id="aK1pAJvMrhKp8s3aEPsD-10" value="Of SEVILLA" style="shape=umlActor;verticalLabelPosition=bottom;verticalAlign=top;html=1;outlineConnect=0;" vertex="1" parent="1">
          <mxGeometry x="70" y="460" width="30" height="60" as="geometry" />
        </mxCell>
        <mxCell id="aK1pAJvMrhKp8s3aEPsD-11" value="" style="rounded=0;whiteSpace=wrap;html=1;" vertex="1" parent="1">
          <mxGeometry x="360" y="120" width="155" height="80" as="geometry" />
        </mxCell>
        <mxCell id="aK1pAJvMrhKp8s3aEPsD-12" value="" style="rounded=0;whiteSpace=wrap;html=1;" vertex="1" parent="1">
          <mxGeometry x="360" y="480" width="160" height="80" as="geometry" />
        </mxCell>
        <mxCell id="aK1pAJvMrhKp8s3aEPsD-13" value="" style="rounded=0;whiteSpace=wrap;html=1;" vertex="1" parent="1">
          <mxGeometry x="360" y="280" width="160" height="80" as="geometry" />
        </mxCell>
        <mxCell id="aK1pAJvMrhKp8s3aEPsD-14" value="Proyectos TEIC (EPC)&amp;nbsp;" style="text;html=1;align=center;verticalAlign=middle;whiteSpace=wrap;rounded=0;" vertex="1" parent="1">
          <mxGeometry x="377.5" y="135" width="120" height="50" as="geometry" />
        </mxCell>
        <mxCell id="aK1pAJvMrhKp8s3aEPsD-15" value="Licitaciones (Presupuestos)" style="text;html=1;align=center;verticalAlign=middle;whiteSpace=wrap;rounded=0;" vertex="1" parent="1">
          <mxGeometry x="377.5" y="292.5" width="120" height="50" as="geometry" />
        </mxCell>
        <mxCell id="aK1pAJvMrhKp8s3aEPsD-16" value="Ingeniería a Terceros" style="text;html=1;align=center;verticalAlign=middle;whiteSpace=wrap;rounded=0;" vertex="1" parent="1">
          <mxGeometry x="377.5" y="495" width="120" height="50" as="geometry" />
        </mxCell>
        <mxCell id="aK1pAJvMrhKp8s3aEPsD-17" value="Ingeniería + Proyecto TEIC" style="text;html=1;align=center;verticalAlign=middle;whiteSpace=wrap;rounded=0;" vertex="1" parent="1">
          <mxGeometry x="550" y="135" width="120" height="50" as="geometry" />
        </mxCell>
        <mxCell id="aK1pAJvMrhKp8s3aEPsD-22" value="Of ECUADOR" style="shape=umlActor;verticalLabelPosition=bottom;verticalAlign=top;html=1;outlineConnect=0;" vertex="1" parent="1">
          <mxGeometry x="140" y="350" width="30" height="60" as="geometry" />
        </mxCell>
        <mxCell id="aK1pAJvMrhKp8s3aEPsD-27" style="edgeStyle=orthogonalEdgeStyle;rounded=0;orthogonalLoop=1;jettySize=auto;html=1;exitX=0.5;exitY=0;exitDx=0;exitDy=0;entryX=0;entryY=0.5;entryDx=0;entryDy=0;" edge="1" parent="1" source="aK1pAJvMrhKp8s3aEPsD-1" target="aK1pAJvMrhKp8s3aEPsD-11">
          <mxGeometry relative="1" as="geometry">
            <mxPoint x="270" y="310" as="sourcePoint" />
            <mxPoint x="432" y="310" as="targetPoint" />
          </mxGeometry>
        </mxCell>
        <mxCell id="aK1pAJvMrhKp8s3aEPsD-28" style="edgeStyle=orthogonalEdgeStyle;rounded=0;orthogonalLoop=1;jettySize=auto;html=1;exitX=0.5;exitY=0;exitDx=0;exitDy=0;entryX=0;entryY=0.5;entryDx=0;entryDy=0;" edge="1" parent="1" source="aK1pAJvMrhKp8s3aEPsD-1" target="aK1pAJvMrhKp8s3aEPsD-12">
          <mxGeometry relative="1" as="geometry">
            <mxPoint x="270" y="413" as="sourcePoint" />
            <mxPoint x="432" y="230" as="targetPoint" />
          </mxGeometry>
        </mxCell>
      </root>
    </mxGraphModel>
  </diagram>
</mxfile>
